<svg width="22" height="22" viewBox="0 0 22 22" fill="none" xmlns="http://www.w3.org/2000/svg">
<path d="M11.0004 14.6667C10.8191 14.6667 10.6419 14.7204 10.4911 14.8211C10.3404 14.9219 10.2229 15.065 10.1535 15.2325C10.0841 15.4 10.066 15.5843 10.1014 15.7622C10.1367 15.94 10.224 16.1033 10.3522 16.2315C10.4804 16.3597 10.6438 16.447 10.8216 16.4824C10.9994 16.5178 11.1837 16.4996 11.3512 16.4302C11.5187 16.3608 11.6619 16.2433 11.7626 16.0926C11.8633 15.9419 11.9171 15.7646 11.9171 15.5833C11.9171 15.3402 11.8205 15.1071 11.6486 14.9351C11.4767 14.7632 11.2435 14.6667 11.0004 14.6667ZM20.7813 16.0142L13.4021 3.18083C13.1636 2.75322 12.8152 2.39704 12.393 2.14909C11.9708 1.90114 11.49 1.77042 11.0004 1.77042C10.5108 1.77042 10.03 1.90114 9.60782 2.14909C9.18562 2.39704 8.83726 2.75322 8.59875 3.18083L1.26542 16.0142C1.01865 16.4303 0.886049 16.9043 0.881009 17.3881C0.875969 17.8719 0.998666 18.3485 1.23671 18.7697C1.47476 19.1909 1.81973 19.5419 2.23679 19.7872C2.65386 20.0325 3.12825 20.1634 3.61208 20.1667H18.3888C18.8765 20.1715 19.3567 20.0465 19.7802 19.8045C20.2036 19.5625 20.5552 19.2123 20.7987 18.7897C21.0421 18.3671 21.1689 17.8873 21.1658 17.3996C21.1627 16.9118 21.03 16.4337 20.7813 16.0142V16.0142ZM19.1954 17.8475C19.1151 17.9904 18.9978 18.1092 18.856 18.1915C18.7141 18.2737 18.5527 18.3163 18.3888 18.315H3.61208C3.4481 18.3163 3.28676 18.2737 3.14488 18.1915C3.00299 18.1092 2.88577 17.9904 2.80542 17.8475C2.72496 17.7081 2.68261 17.5501 2.68261 17.3892C2.68261 17.2283 2.72496 17.0702 2.80542 16.9308L10.1388 4.09749C10.2157 3.94734 10.3325 3.82133 10.4765 3.73334C10.6204 3.64535 10.7859 3.59879 10.9546 3.59879C11.1233 3.59879 11.2887 3.64535 11.4327 3.73334C11.5766 3.82133 11.6935 3.94734 11.7704 4.09749L19.1496 16.9308C19.2405 17.0682 19.2928 17.2275 19.3009 17.392C19.3089 17.5566 19.2725 17.7202 19.1954 17.8658V17.8475ZM11.0004 7.33333C10.7573 7.33333 10.5241 7.42991 10.3522 7.60181C10.1803 7.77372 10.0838 8.00688 10.0838 8.24999V11.9167C10.0838 12.1598 10.1803 12.3929 10.3522 12.5648C10.5241 12.7368 10.7573 12.8333 11.0004 12.8333C11.2435 12.8333 11.4767 12.7368 11.6486 12.5648C11.8205 12.3929 11.9171 12.1598 11.9171 11.9167V8.24999C11.9171 8.00688 11.8205 7.77372 11.6486 7.60181C11.4767 7.42991 11.2435 7.33333 11.0004 7.33333Z" fill="#EA3D3D"/>
</svg>
