<svg width="28" height="16" viewBox="0 0 28 16" fill="none" xmlns="http://www.w3.org/2000/svg">
<path fill-rule="evenodd" clip-rule="evenodd" d="M14.0217 14.8748C13.6828 14.8807 13.356 14.7486 13.1163 14.5089L1.86627 3.25888C1.37812 2.77073 1.37812 1.97927 1.86627 1.49112C2.35443 1.00296 3.14588 1.00296 3.63404 1.49112L13.9708 11.8278C15.5965 10.0978 17.7179 7.8696 19.6308 5.92143C20.7716 4.7597 21.8463 3.68918 22.7009 2.88121C23.1269 2.47839 23.5094 2.13013 23.8239 1.86515C23.9806 1.73315 24.1322 1.61178 24.2715 1.51127C24.389 1.42651 24.5757 1.29848 24.7859 1.2144C25.4269 0.958013 26.1544 1.26978 26.4108 1.91076C26.6584 2.52997 26.3759 3.22988 25.7786 3.50786C25.7689 3.51427 25.7542 3.52428 25.7342 3.53875C25.665 3.58866 25.566 3.6664 25.4347 3.77703C25.1733 3.99732 24.8302 4.30843 24.4185 4.69775C23.5974 5.47405 22.5479 6.51889 21.4147 7.67299C19.1506 9.97881 16.5851 12.6874 14.914 14.4779C14.6827 14.7257 14.3606 14.869 14.0217 14.8748Z" fill="#C4C4C4" stroke="#C4C4C4" stroke-width="1.96721" stroke-linecap="round" stroke-linejoin="round"/>
</svg>
