<svg width="20" height="16" viewBox="0 0 20 16" fill="none" xmlns="http://www.w3.org/2000/svg">
<path d="M19.0933 7.63317C17.2416 3.334 13.7583 0.666504 9.99994 0.666504C6.24161 0.666504 2.75827 3.334 0.906606 7.63317C0.856131 7.74882 0.830078 7.87365 0.830078 7.99984C0.830078 8.12602 0.856131 8.25085 0.906606 8.3665C2.75827 12.6657 6.24161 15.3332 9.99994 15.3332C13.7583 15.3332 17.2416 12.6657 19.0933 8.3665C19.1437 8.25085 19.1698 8.12602 19.1698 7.99984C19.1698 7.87365 19.1437 7.74882 19.0933 7.63317ZM9.99994 13.4998C7.08494 13.4998 4.34411 11.4007 2.75827 7.99984C4.34411 4.599 7.08494 2.49984 9.99994 2.49984C12.9149 2.49984 15.6558 4.599 17.2416 7.99984C15.6558 11.4007 12.9149 13.4998 9.99994 13.4998Z" fill="#83868B"/>
<path d="M2 8L18 8" stroke="#83868B" stroke-width="2"/>
</svg>
